<svg xmlns="http://www.w3.org/2000/svg" viewBox="0 0 32 32">
  <!-- Paleta -->
  <path d="M16 2C8.268 2 2 8.268 2 16c0 4.08 1.74 7.742 4.5 10.322C7.742 27.5 9.8 28 12 28c2 0 3-1.5 3-3s1-3 3-3c7.732 0 12-4.268 12-9C30 7.164 23.732 2 16 2z" fill="#8B4513"/>
  <!-- Manchas de color -->
  <circle cx="9" cy="12" r="2.2" fill="#D2691E"/>
  <circle cx="14" cy="8" r="2.2" fill="#556B2F"/>
  <circle cx="20" cy="8" r="2.2" fill="#8B4513"/>
  <circle cx="24" cy="13" r="2.2" fill="#F5DEB3"/>
  <circle cx="23" cy="19" r="2.2" fill="#A0522D"/>
  <!-- Hueco del pulgar -->
  <circle cx="10" cy="20" r="3" fill="#6B2E0A"/>
</svg>
